<?xml version="1.0" encoding="UTF-8"?><svg id="a" xmlns="http://www.w3.org/2000/svg" xmlns:xlink="http://www.w3.org/1999/xlink" viewBox="0 0 388.85 281.57"><defs><linearGradient id="b" x1="0" y1="210.49" x2="336.6" y2="210.49" gradientTransform="translate(0 284.01) scale(1 -1)" gradientUnits="userSpaceOnUse"><stop offset="0" stop-color="#2500c7"/><stop offset="1" stop-color="#0bbbc0"/></linearGradient><linearGradient id="c" x1="51.3" y1="137.15" x2="388.85" y2="137.15" gradientTransform="translate(0 284.01) scale(1 -1)" gradientUnits="userSpaceOnUse"><stop offset="0" stop-color="#2403ca"/><stop offset="1" stop-color="#00e8cb"/></linearGradient><linearGradient id="d" x1="54.11" y1="69.34" x2="344" y2="69.34" gradientTransform="translate(0 284.01) scale(1 -1)" gradientUnits="userSpaceOnUse"><stop offset="0" stop-color="#2607c7"/><stop offset="1" stop-color="#01c0be"/></linearGradient></defs><path d="M311.07,57.68c10.93,15.31,18.75,29.28,23.22,48.28.82,3.48,3.7,15.38,1.49,17.54-10.8,4.88-19.44,13.06-27.52,21.48-1.09-14.8-2.53-29.62-7.19-43.8-10.01-30.48-36.65-59.47-67.5-69.5-48.9-15.9-89.71,2.03-123.33,37.28-22.01,23.08-53.3,71.42-86.21,76.79-2.93.48-11.95,1.36-14.74,1.29-6.32-.17-11.92-5.95-7.98-12.01,3.02-4.64,10.07-2.6,14.86-3.14,32.41-3.65,59.29-55.77,78.6-79.4,58.4-71.44,162.5-70.18,216.29,5.19h.01Z" fill="url(#b)"/><path d="M287.96,164.79c.32.32,4.48,1.24,5.33,1.25,6.03.03,24.5-16.66,31.17-20.86,16.48-10.39,30.45-14.29,49.8-13.18,6.29.36,14.97-1.98,14.58,7.48-.39,9.48-12.91,6-19.58,6.5-25.53,1.92-37.66,14.63-56.57,28.43-14.94,10.91-30.75,13.27-40.33-5.52-4.13-8.1-4.41-28.14-15.17-28.91-6.34-.46-9.54,6.62-10.18,11.76-1.76,13.91,1.41,37.68-6.8,49.2-3.76,5.27-10.67,10.78-17.17,11.83-50.01,8.04-29.93-74.99-34.5-102.04-1.05-6.23-5.71-12.05-12.24-12.76-23.32-2.52-17.77,23.69-18.52,38.54-.45,8.86-1.5,20.68-7,28-14.46,19.19-38.95,12.52-47.21-8.8-2.64-6.83-3.68-24.51-14.06-22.54-3.85.73-14.99,10.96-20.4,13.68-3.19,1.6-14.85,6.54-17.22,3.06-3.23-4.73,7.77-9.72,10.91-12.37,7.15-6.05,15.32-18.7,24.71-20.29,14.7-2.5,23.7,6.45,28,19.54,2.18,6.62,2.72,20.16,10.97,22.03,19,4.31,13.53-31.68,14.29-42.31.91-12.62,5.45-24.6,16.7-31.3,23.3-13.86,46.66,4.3,48.35,29.26,1.49,21.89-2.07,46.47-.05,68.05.68,7.3,4.75,15.63,13.26,14.29,13.71-2.15,10.17-24.7,10.74-34.31.23-3.81.66-9.1,1.11-12.89,3.48-29.25,38.68-35.72,50.08-7.29,2,4.98,2.47,10.04,4.08,14.92.37,1.13,2.65,7.27,2.93,7.56h0Z" fill="url(#c)"/><path d="M82.76,147.99c.67.73.8,9.57,1.1,11.4,1.23,7.58,3.37,15.86,5.88,23.12,5.35,15.49,17.79,36.56,30.72,45.72,1.76,1.25,6.76,7.12,8.56,8.49,3.53,2.69,19.44,10.81,24.04,12.46,42.25,15.21,81.93,3.72,115.19-24.21,20.86-17.52,49.1-50.66,73.44-60.56,1.46-.59,2.9-.62,2.06,1.06-.73,1.46-4.45,3.33-6.03,4.97-17.81,18.46-30.54,45.58-48.44,65.56-73.85,82.45-203.65,46.86-232.79-57.25-.75-2.68-3.64-11.56-1.76-13.29,1.25-1.15,5.09-1.87,7.07-2.94,7.57-4.05,11.97-8.58,18.44-13.56.61-.47,1.89-1.66,2.51-.99v.02Z" fill="url(#d)"/></svg>