<?xml version="1.0" encoding="UTF-8"?><svg id="a" xmlns="http://www.w3.org/2000/svg" xmlns:xlink="http://www.w3.org/1999/xlink" viewBox="0 0 1081.51 281.57"><defs><linearGradient id="b" x1="0" y1="73.52" x2="336.59" y2="73.52" gradientUnits="userSpaceOnUse"><stop offset="0" stop-color="#2500c7"/><stop offset="1" stop-color="#0bbbc0"/></linearGradient><linearGradient id="c" x1="51.29" y1="146.83" x2="388.84" y2="146.83" gradientUnits="userSpaceOnUse"><stop offset="0" stop-color="#2403ca"/><stop offset="1" stop-color="#00e8cb"/></linearGradient><linearGradient id="d" x1="54.11" y1="214.67" x2="344" y2="214.67" gradientUnits="userSpaceOnUse"><stop offset="0" stop-color="#2607c7"/><stop offset="1" stop-color="#01c0be"/></linearGradient></defs><path d="M311.07,57.67c10.93,15.31,18.75,29.28,23.22,48.28.82,3.48,3.7,15.38,1.49,17.54-10.8,4.88-19.44,13.06-27.52,21.48-1.09-14.8-2.53-29.62-7.19-43.8-10.01-30.48-36.65-59.47-67.5-69.5-48.9-15.9-89.71,2.03-123.33,37.28-22.01,23.08-53.3,71.42-86.21,76.79-2.93.48-11.95,1.36-14.74,1.29-6.32-.17-11.92-5.95-7.98-12.01,3.02-4.64,10.07-2.6,14.86-3.14,32.41-3.65,59.29-55.77,78.6-79.4,58.4-71.44,162.5-70.18,216.29,5.19Z" fill="url(#b)"/><path d="M287.96,164.78c.32.32,4.48,1.24,5.33,1.25,6.03.03,24.5-16.66,31.17-20.86,16.48-10.39,30.45-14.29,49.8-13.18,6.29.36,14.97-1.98,14.58,7.48-.39,9.48-12.91,6-19.58,6.5-25.53,1.92-37.66,14.63-56.57,28.43-14.94,10.91-30.75,13.27-40.33-5.52-4.13-8.1-4.41-28.14-15.17-28.91-6.34-.46-9.54,6.62-10.18,11.76-1.76,13.91,1.41,37.68-6.8,49.2-3.76,5.27-10.67,10.78-17.17,11.83-50.01,8.04-29.93-74.99-34.5-102.04-1.05-6.23-5.71-12.05-12.24-12.76-23.32-2.52-17.77,23.69-18.52,38.54-.45,8.86-1.5,20.68-7,28-14.46,19.19-38.95,12.52-47.21-8.8-2.64-6.83-3.68-24.51-14.06-22.54-3.85.73-14.99,10.96-20.4,13.68-3.19,1.6-14.85,6.54-17.22,3.06-3.23-4.73,7.77-9.72,10.91-12.37,7.15-6.05,15.32-18.7,24.71-20.29,14.7-2.5,23.7,6.45,28,19.54,2.18,6.62,2.72,20.16,10.97,22.03,19,4.31,13.53-31.68,14.29-42.31.91-12.62,5.45-24.6,16.7-31.3,23.3-13.86,46.66,4.3,48.35,29.26,1.49,21.89-2.07,46.47-.05,68.05.68,7.3,4.75,15.63,13.26,14.29,13.71-2.15,10.17-24.7,10.74-34.31.23-3.81.66-9.1,1.11-12.89,3.48-29.25,38.68-35.72,50.08-7.29,2,4.98,2.47,10.04,4.08,14.92.37,1.13,2.65,7.27,2.93,7.56Z" fill="url(#c)"/><path d="M82.76,147.98c.67.73.8,9.57,1.1,11.4,1.23,7.58,3.37,15.86,5.88,23.12,5.35,15.49,17.79,36.56,30.72,45.72,1.76,1.25,6.76,7.12,8.56,8.49,3.53,2.69,19.44,10.81,24.04,12.46,42.25,15.21,81.93,3.72,115.19-24.21,20.86-17.52,49.1-50.66,73.44-60.56,1.46-.59,2.9-.62,2.06,1.06-.73,1.46-4.45,3.33-6.03,4.97-17.81,18.46-30.54,45.58-48.44,65.56-73.85,82.45-203.65,46.86-232.79-57.25-.75-2.68-3.64-11.56-1.76-13.29,1.25-1.15,5.09-1.87,7.07-2.94,7.57-4.05,11.97-8.58,18.44-13.56.61-.47,1.89-1.66,2.51-.99Z" fill="url(#d)"/><path d="M464.3,200.05c-10.15-5.92-18.18-14.04-24.08-24.35-5.91-10.31-8.86-21.77-8.86-34.38s2.95-24.07,8.86-34.38c5.9-10.31,13.93-18.43,24.08-24.35,10.15-5.92,21.46-8.88,33.93-8.88s23.58,2.96,33.73,8.88c10.15,5.92,18.14,14.04,23.98,24.35,5.84,10.31,8.76,21.77,8.76,34.38s-2.92,24.07-8.76,34.38c-5.84,10.31-13.83,18.43-23.98,24.35-10.15,5.92-21.39,8.88-33.73,8.88s-23.78-2.96-33.93-8.88ZM523.21,185.15c7.36-4.39,13.17-10.44,17.41-18.14,4.24-7.7,6.37-16.26,6.37-25.69s-2.12-18.14-6.37-25.78c-4.25-7.64-10.05-13.66-17.41-18.05-7.36-4.39-15.62-6.59-24.78-6.59s-17.65,2.2-25.07,6.59c-7.43,4.39-13.27,10.41-17.51,18.05-4.25,7.64-6.37,16.23-6.37,25.78s2.12,18.14,6.37,25.78c4.24,7.64,10.08,13.66,17.51,18.05,7.43,4.39,15.79,6.59,25.07,6.59s17.41-2.2,24.78-6.59Z" fill="#0b0a40"/><path d="M636.14,112.86l-3.78,16.81c-4.38-.51-6.9-.76-7.56-.76-3.85,0-7.2.45-10.05,1.34-2.85.89-5.34,2.36-7.46,4.39-4.11,3.82-6.17,11.14-6.17,21.96v51.95h-18.11v-53.48c0-14.26,3.65-25.02,10.95-32.28,7.69-7.13,17.71-10.7,30.05-10.7,2.79,0,6.83.26,12.14.76Z" fill="#0b0a40"/><path d="M682.71,245.6h-19.5l15.92-37.82-33.83-95.88h19.7l24.88,70.48,24.68-70.48h19.7l-51.54,133.7Z" fill="#0b0a40"/><path d="M823.6,122.32c7.16,6.94,10.75,16.2,10.75,27.79v57.49h-18.91v-56.34c0-7.13-1.79-12.51-5.37-16.14-3.58-3.63-8.82-5.44-15.72-5.44-7.43,0-13.37,1.81-17.81,5.44-4.45,3.63-6.67,8.56-6.67,14.8v57.68h-18.91v-95.69h19.1v6.11c7.03-4.07,15.26-6.11,24.68-6.11,12.07,0,21.69,3.47,28.86,10.41Z" fill="#0b0a40"/><path d="M863.8,94.72c-3.18,0-5.84-1.02-7.96-3.06-2.12-2.29-3.18-4.84-3.18-7.64s1.13-5.28,3.38-7.45c1.99-2.03,4.64-3.06,7.96-3.06s5.77,1.02,7.76,3.06c2.12,1.91,3.18,4.39,3.18,7.45s-1.06,5.6-3.18,7.64-4.71,3.06-7.76,3.06h-.2ZM873.15,207.41h-17.91v-95.5h17.91v95.5Z" fill="#0b0a40"/><path d="M937.63,178.37l25.47-66.47h18.91l-37.21,96.83h-14.13l-37.41-96.83h19.1l25.27,66.47Z" fill="#0b0a40"/><path d="M1008.07,202.63c-7.43-4.33-13.3-10.22-17.61-17.67-4.31-7.45-6.47-15.63-6.47-24.54s2.15-17.06,6.47-24.45c4.31-7.38,10.18-13.21,17.61-17.48,7.43-4.26,15.72-6.4,24.88-6.4s17.24,2.13,24.68,6.4c7.43,4.27,13.26,10.09,17.51,17.48,4.24,7.39,6.37,15.54,6.37,24.45s-2.12,17.09-6.37,24.54c-4.25,7.45-10.08,13.34-17.51,17.67-7.43,4.33-15.66,6.49-24.68,6.49s-17.45-2.16-24.88-6.49ZM1048.67,187.06c4.64-2.74,8.29-6.49,10.95-11.27,2.65-4.77,3.98-10.03,3.98-15.76s-1.33-10.76-3.98-15.47c-2.66-4.71-6.3-8.43-10.95-11.17-4.65-2.74-9.82-4.11-15.52-4.11s-11.11,1.34-15.82,4.01c-4.71,2.67-8.39,6.37-11.05,11.08-2.65,4.71-3.98,9.93-3.98,15.66s1.33,11.14,3.98,15.85c2.65,4.71,6.33,8.44,11.05,11.17,4.71,2.74,9.98,4.11,15.82,4.11s10.88-1.37,15.52-4.11Z" fill="#0b0a40"/></svg>